<svg xmlns="http://www.w3.org/2000/svg" viewBox="0 0 600 600" width="600" height="600" role="img" aria-label="Driver Road Warrior Backpack — product photos coming soon">
  <defs>
    <linearGradient id="bg" x1="0" y1="0" x2="0" y2="1">
      <stop offset="0" stop-color="#1F3470"/>
      <stop offset="1" stop-color="#142455"/>
    </linearGradient>
  </defs>
  <rect width="600" height="600" fill="url(#bg)"/>
  <rect x="20" y="20" width="560" height="560" rx="18" fill="none" stroke="#C8A84B" stroke-opacity="0.35" stroke-width="2"/>
  <!-- backpack icon -->
  <g transform="translate(300,232)" fill="none" stroke="#C8A84B" stroke-width="7" stroke-linecap="round" stroke-linejoin="round" opacity="0.92">
    <path d="M-78 -34 a78 60 0 0 1 156 0 v92 a26 26 0 0 1 -26 26 h-104 a26 26 0 0 1 -26 -26 z"/>
    <path d="M-40 -52 a40 40 0 0 1 80 0"/>
    <rect x="-46" y="-2" width="92" height="56" rx="12"/>
    <path d="M0 14 v30"/>
  </g>
  <text x="300" y="384" text-anchor="middle" font-family="Georgia, 'Times New Roman', serif" font-size="34" font-weight="700" fill="#FFFFFF" letter-spacing="0.5">Driver Road Warrior Backpack&#8482;</text>
  <text x="300" y="424" text-anchor="middle" font-family="-apple-system, Segoe UI, Helvetica, Arial, sans-serif" font-size="18" fill="#A9B6DA" letter-spacing="2.5">BUILT FOR THE ROAD. APPRECIATED FOR YEARS.</text>
  <text x="300" y="486" text-anchor="middle" font-family="-apple-system, Segoe UI, Helvetica, Arial, sans-serif" font-size="15" fill="#7E8FBF" letter-spacing="1">Product photography coming soon</text>
</svg>
