<svg xmlns="http://www.w3.org/2000/svg" viewBox="0 0 600 320" role="img" aria-label="Driver Appreciation Kits">
  <defs>
    <linearGradient id="bg" x1="0" y1="0" x2="1" y2="1">
      <stop offset="0" stop-color="#16264F"/><stop offset=".55" stop-color="#102043"/><stop offset="1" stop-color="#0B1430"/>
    </linearGradient>
    <radialGradient id="glow" cx="82%" cy="20%" r="62%">
      <stop offset="0" stop-color="#C8A84B" stop-opacity=".22"/><stop offset="1" stop-color="#C8A84B" stop-opacity="0"/>
    </radialGradient>
  </defs>
  <rect width="600" height="320" fill="url(#bg)"/>
  <rect width="600" height="320" fill="url(#glow)"/>
  <g fill="none" stroke="#C8A84B" stroke-opacity=".15"><circle cx="512" cy="44" r="130"/><circle cx="512" cy="44" r="92"/></g>
  <g transform="translate(300 122)" fill="none" stroke="#E8C766" stroke-width="6" stroke-linecap="round" stroke-linejoin="round">
    <rect x="-34" y="-2" width="68" height="44" rx="4"/>
    <rect x="-42" y="-20" width="84" height="20" rx="4"/>
    <path d="M0 -20 V42"/>
    <path d="M0 -20 C -22 -42 -40 -18 0 -20"/>
    <path d="M0 -20 C 22 -42 40 -18 0 -20"/>
  </g>
  <text x="300" y="216" text-anchor="middle" font-family="Arial,Helvetica,sans-serif" font-size="20" font-weight="700" letter-spacing="3" fill="#E8C766">DRIVER APPRECIATION</text>
  <text x="300" y="246" text-anchor="middle" font-family="Arial,Helvetica,sans-serif" font-size="11" letter-spacing="4" fill="#8FA0CC">DRIVER APPRECIATION SOLUTIONS</text>
  <rect x="0" y="316" width="600" height="4" fill="#C8A84B" fill-opacity=".85"/>
  <path transform="translate(560 286) scale(1.1)" d="M0 -9 L2.3 -2.3 L9 0 L2.3 2.3 L0 9 L-2.3 2.3 L-9 0 L-2.3 -2.3 Z" fill="#C8A84B" fill-opacity=".55"/>
</svg>
